<?xml version="1.0" encoding="iso-8859-1"?>
<!-- Generator: Adobe Illustrator 20.1.0, SVG Export Plug-In . SVG Version: 6.00 Build 0)  -->
<svg xmlns="http://www.w3.org/2000/svg" xmlns:xlink="http://www.w3.org/1999/xlink" version="1.1" id="&#1057;&#1083;&#1086;&#1081;_1" x="0px" y="0px" viewBox="0 0 64 64" style="enable-background:new 0 0 64 64;" xml:space="preserve">
<linearGradient id="SVGID_1__52998" gradientUnits="userSpaceOnUse" x1="32.002" y1="4.6667" x2="32.002" y2="59.5091" spreadMethod="reflect">
	<stop offset="0" style="stop-color:#1A6DFF"/>
	<stop offset="1" style="stop-color:#C822FF"/>
</linearGradient>
<path style="fill:url(#SVGID_1__52998);" d="M57.002,32c0-13.785-11.215-25-25-25s-25,11.215-25,25s11.215,25,25,25  S57.002,45.785,57.002,32z M32.002,55c-12.683,0-23-10.317-23-23s10.317-23,23-23s23,10.317,23,23S44.685,55,32.002,55z"/>
<linearGradient id="SVGID_2__52998" gradientUnits="userSpaceOnUse" x1="51.1807" y1="4.6667" x2="51.1807" y2="59.5091" spreadMethod="reflect">
	<stop offset="0" style="stop-color:#1A6DFF"/>
	<stop offset="1" style="stop-color:#C822FF"/>
</linearGradient>
<path style="fill:url(#SVGID_2__52998);" d="M55.146,18.087l1.713-1.031c-2.53-4.201-6.111-7.72-10.355-10.175l-1.002,1.73  C49.454,10.898,52.789,14.175,55.146,18.087z"/>
<linearGradient id="SVGID_3__52998" gradientUnits="userSpaceOnUse" x1="12.6929" y1="4.6667" x2="12.6929" y2="59.5091" spreadMethod="reflect">
	<stop offset="0" style="stop-color:#1A6DFF"/>
	<stop offset="1" style="stop-color:#C822FF"/>
</linearGradient>
<path style="fill:url(#SVGID_3__52998);" d="M18.503,8.611l-1.002-1.73C13.102,9.425,9.43,13.096,6.883,17.498l1.73,1.002  C10.985,14.4,14.405,10.981,18.503,8.611z"/>
<linearGradient id="SVGID_4__52998" gradientUnits="userSpaceOnUse" x1="12.4839" y1="4.6667" x2="12.4839" y2="59.5091" spreadMethod="reflect">
	<stop offset="0" style="stop-color:#1A6DFF"/>
	<stop offset="1" style="stop-color:#C822FF"/>
</linearGradient>
<path style="fill:url(#SVGID_4__52998);" d="M8.609,45.494l-1.73,1.002c2.455,4.246,5.975,7.829,10.179,10.361l1.031-1.713  C14.174,52.786,10.896,49.449,8.609,45.494z"/>
<linearGradient id="SVGID_5__52998" gradientUnits="userSpaceOnUse" x1="51.311" y1="4.6667" x2="51.311" y2="59.5091" spreadMethod="reflect">
	<stop offset="0" style="stop-color:#1A6DFF"/>
	<stop offset="1" style="stop-color:#C822FF"/>
</linearGradient>
<path style="fill:url(#SVGID_5__52998);" d="M55.391,45.499c-2.371,4.098-5.79,7.518-9.89,9.89l1.002,1.73  c4.401-2.546,8.073-6.218,10.618-10.618L55.391,45.499z"/>
<linearGradient id="SVGID_6__52998" gradientUnits="userSpaceOnUse" x1="32.0015" y1="4.6667" x2="32.0015" y2="59.5091" spreadMethod="reflect">
	<stop offset="0" style="stop-color:#1A6DFF"/>
	<stop offset="1" style="stop-color:#C822FF"/>
</linearGradient>
<path style="fill:url(#SVGID_6__52998);" d="M40.122,28.12c0.56,1.18,0.88,2.49,0.88,3.88c0,4.96-4.04,9-9,9s-9-4.04-9-9s4.04-9,9-9  c1.39,0,2.7,0.32,3.88,0.88l1.48-1.48c-1.58-0.89-3.41-1.4-5.36-1.4c-6.07,0-11,4.93-11,11c0,6.07,4.93,11,11,11s11-4.93,11-11  c0-1.95-0.51-3.78-1.4-5.36L40.122,28.12z"/>
<linearGradient id="SVGID_7__52998" gradientUnits="userSpaceOnUse" x1="36.1052" y1="4.6667" x2="36.1052" y2="59.5091" spreadMethod="reflect">
	<stop offset="0" style="stop-color:#1A6DFF"/>
	<stop offset="1" style="stop-color:#C822FF"/>
</linearGradient>
<path style="fill:url(#SVGID_7__52998);" d="M34.755,27.833C33.964,27.309,33.019,27,32.001,27c-2.757,0-5,2.243-5,5s2.243,5,5,5  s5-2.243,5-5c0-1.017-0.309-1.962-0.833-2.752l9.04-9.04l-1.414-1.414L34.755,27.833z M32.001,35c-1.654,0-3-1.346-3-3s1.346-3,3-3  s3,1.346,3,3S33.656,35,32.001,35z"/>
<linearGradient id="SVGID_8__52998" gradientUnits="userSpaceOnUse" x1="32.002" y1="13.5" x2="32.002" y2="53.0506" spreadMethod="reflect">
	<stop offset="0" style="stop-color:#6DC7FF"/>
	<stop offset="1" style="stop-color:#E6ABFF"/>
</linearGradient>
<path style="fill:url(#SVGID_8__52998);" d="M53.002,32c0-2.022-1.513-3.681-3.463-3.946c-0.534-2.392-1.504-4.591-2.857-6.495L45.242,23  c1.065,1.568,1.84,3.355,2.3,5.286c-1.484,0.585-2.54,2.025-2.54,3.715c0,1.695,1.063,3.138,2.555,3.72  c-1.393,5.839-5.997,10.443-11.835,11.835C35.14,46.063,33.697,45,32.002,45s-3.138,1.063-3.72,2.556  c-5.838-1.392-10.443-5.997-11.836-11.836c1.492-0.581,2.556-2.024,2.556-3.72c0-1.693-1.061-3.135-2.549-3.718  C18.155,21.113,24.541,16,32.001,16c3.31,0,6.42,1.01,9,2.76l1.44-1.44c-2.96-2.1-6.57-3.32-10.44-3.32  c-8.473,0-15.716,5.862-17.546,14.056c-1.945,0.27-3.453,1.926-3.453,3.945c0,2.017,1.505,3.672,3.448,3.944  c1.515,6.761,6.846,12.093,13.608,13.607C28.329,51.495,29.985,53,32.002,53s3.673-1.505,3.944-3.449  c6.761-1.515,12.091-6.846,13.607-13.607C51.497,35.673,53.002,34.017,53.002,32z M13.002,32c0-1.103,0.897-2,2-2s2,0.897,2,2  s-0.897,2-2,2S13.002,33.103,13.002,32z M32.002,51c-1.103,0-2-0.897-2-2s0.897-2,2-2s2,0.897,2,2S33.104,51,32.002,51z M49.002,34  c-1.103,0-2-0.897-2-2s0.897-2,2-2s2,0.897,2,2S50.104,34,49.002,34z"/>
<linearGradient id="SVGID_9__52998" gradientUnits="userSpaceOnUse" x1="32.0015" y1="28.5833" x2="32.0015" y2="35.0855" spreadMethod="reflect">
	<stop offset="0" style="stop-color:#6DC7FF"/>
	<stop offset="1" style="stop-color:#E6ABFF"/>
</linearGradient>
<circle style="fill:url(#SVGID_9__52998);" cx="32.002" cy="32" r="3"/>
</svg>
